<?xml version="1.0" standalone="no"?>
<!DOCTYPE svg PUBLIC "-//W3C//DTD SVG 20010904//EN"
 "http://www.w3.org/TR/2001/REC-SVG-20010904/DTD/svg10.dtd">
<svg version="1.0" xmlns="http://www.w3.org/2000/svg"
 width="251.000000pt" height="174.000000pt" viewBox="0 0 251.000000 174.000000"
 preserveAspectRatio="xMidYMid meet">

<g transform="translate(0.000000,174.000000) scale(0.100000,-0.100000)"
fill="#000000" stroke="none">
<path d="M1830 870 c0 -5 7 -7 15 -4 8 4 15 8 15 10 0 2 -7 4 -15 4 -8 0 -15
-4 -15 -10z"/>
<path d="M674 825 c-10 -45 -4 -63 16 -50 6 3 10 15 10 25 0 10 5 22 11 26 8
5 10 -1 5 -19 -6 -26 9 -46 24 -31 4 5 11 24 15 42 6 28 4 32 -14 32 -11 0
-23 5 -26 10 -14 22 -31 7 -41 -35z"/>
<path d="M1026 862 c-3 -5 -8 -28 -12 -50 -6 -42 -6 -42 24 -42 37 0 62 23 62
56 0 17 -5 24 -20 24 -11 0 -20 5 -20 10 0 12 -27 13 -34 2z m44 -39 c0 -14
-19 -38 -25 -32 -8 8 5 39 16 39 5 0 9 -3 9 -7z"/>
<path d="M776 819 c-21 -36 -17 -43 29 -45 34 -1 45 13 45 59 0 31 -53 22 -74
-14z"/>
<path d="M866 819 c-10 -53 18 -71 29 -19 4 17 11 30 16 30 5 0 7 -11 3 -24
-9 -37 15 -43 27 -7 14 40 27 40 21 1 -5 -37 15 -40 28 -4 19 50 15 54 -54 54
-63 0 -64 0 -70 -31z"/>
<path d="M1115 820 c-9 -39 -1 -48 37 -45 32 2 46 19 47 58 1 26 -26 20 -33
-8 -4 -14 -10 -25 -15 -25 -4 0 -6 11 -3 25 7 37 -25 33 -33 -5z"/>
<path d="M1216 828 c-3 -13 -6 -31 -6 -40 0 -26 27 -11 34 18 4 13 13 24 21
24 8 0 15 5 15 10 0 6 -13 10 -29 10 -21 0 -30 -6 -35 -22z"/>
<path d="M1292 838 c-19 -19 -14 -48 11 -58 l22 -9 -22 0 c-34 -1 -28 -21 6
-21 35 0 47 14 56 63 7 37 7 37 -27 37 -19 0 -39 -5 -46 -12z m42 -23 c-6 -16
-24 -21 -24 -7 0 11 11 22 21 22 5 0 6 -7 3 -15z"/>
<path d="M1385 820 c-9 -39 -2 -48 37 -46 31 2 43 18 47 64 2 23 -25 12 -36
-15 l-11 -28 -1 28 c-1 37 -28 35 -36 -3z"/>
<path d="M1490 836 c-6 -8 -10 -25 -8 -38 2 -18 9 -23 32 -23 36 0 46 22 14
28 -21 4 -21 4 3 6 26 1 44 22 32 35 -12 12 -61 6 -73 -8z"/>
<path d="M1580 830 c0 -11 5 -20 10 -20 6 0 10 -4 10 -10 0 -5 -6 -7 -14 -4
-8 3 -17 1 -21 -5 -10 -17 23 -25 51 -13 26 12 32 37 12 45 -10 4 -10 6 0 6
26 2 10 21 -18 21 -23 0 -30 -4 -30 -20z"/>
<path d="M1662 838 c-21 -21 -14 -57 12 -64 26 -6 46 1 46 16 0 5 -10 11 -22
13 -21 4 -20 4 3 6 26 1 44 22 32 35 -11 11 -59 6 -71 -6z"/>
<path d="M1745 820 c-7 -30 -1 -50 14 -50 5 0 11 13 14 29 4 17 14 30 27 34
19 5 20 2 14 -29 -5 -27 -3 -34 9 -34 9 0 19 10 22 23 18 61 20 57 -39 57 -52
0 -55 -1 -61 -30z"/>
<path d="M1883 843 c4 -3 0 -14 -9 -24 -24 -26 -11 -47 27 -45 32 2 47 19 48
59 1 13 -7 17 -36 17 -20 0 -33 -3 -30 -7z"/>
<path d="M2112 838 c-13 -17 -372 -748 -372 -759 0 -5 43 -9 95 -9 l96 0 189
382 c103 211 186 386 184 389 -8 13 -181 10 -192 -3z m178 -13 c0 -2 -83 -171
-185 -375 l-185 -370 -80 0 c-44 0 -80 4 -80 9 0 11 330 691 355 731 6 10 175
15 175 5z"/>
<path d="M2107 783 c-9 -21 -86 -181 -171 -356 -86 -174 -156 -319 -156 -322
0 -3 30 -5 68 -5 l67 0 178 355 c97 195 177 357 177 360 0 3 -33 5 -74 5 l-74
0 -15 -37z"/>
<path d="M614 652 c-90 -15 -181 -91 -214 -179 -28 -75 -26 -127 5 -158 23
-24 31 -25 135 -25 60 0 110 -4 110 -9 0 -40 -7 -41 -190 -41 l-178 0 -36 -76
c-20 -42 -36 -80 -36 -86 0 -6 82 -8 218 -6 203 3 220 4 259 26 112 59 199
202 172 281 -17 48 -52 61 -169 61 -55 0 -100 3 -100 8 1 33 20 37 183 40
l164 3 23 47 c12 26 29 61 36 79 l14 32 -189 3 c-103 2 -197 2 -207 0z m376
-16 c0 -2 -14 -34 -31 -70 l-31 -66 -158 0 -159 0 -21 -27 c-11 -14 -17 -30
-13 -34 4 -4 58 -9 119 -11 136 -4 154 -14 154 -88 0 -85 -103 -210 -203 -247
-38 -14 -417 -18 -417 -4 0 4 14 38 30 75 l30 66 175 0 c174 0 175 0 191 25 8
13 13 29 9 35 -4 6 -51 10 -116 10 -103 0 -111 1 -134 25 -64 63 10 231 127
289 51 25 57 26 250 26 109 0 198 -2 198 -4z"/>
<path d="M554 606 c-60 -28 -115 -91 -138 -159 -21 -62 -20 -80 3 -108 18 -22
28 -24 138 -29 110 -5 118 -6 121 -26 2 -11 -6 -32 -17 -45 -19 -23 -23 -24
-194 -27 l-175 -3 -17 -42 c-10 -23 -19 -48 -22 -54 -4 -10 37 -13 186 -13
183 0 194 1 239 24 115 59 200 218 144 269 -15 14 -40 17 -121 17 -139 0 -165
16 -120 74 l20 26 159 0 159 0 25 56 c14 31 26 58 26 60 0 2 -82 4 -182 4
-171 0 -186 -2 -234 -24z"/>
<path d="M1401 644 c-151 -40 -276 -152 -336 -301 -28 -70 -40 -183 -20 -193
6 -3 10 21 11 63 1 93 53 197 140 285 120 120 295 173 407 124 212 -94 -5
-482 -305 -546 -40 -9 -35 -27 5 -19 187 34 347 185 397 372 44 166 -99 269
-299 215z"/>
<path d="M1409 612 c-81 -22 -153 -67 -221 -141 -77 -83 -113 -160 -113 -241
l0 -65 32 -3 c17 -2 37 -10 43 -18 7 -8 23 -14 35 -14 13 0 36 -11 52 -24 26
-22 34 -24 72 -15 107 24 244 124 310 228 44 68 66 156 52 207 -13 48 -35 71
-88 90 -50 17 -94 17 -174 -4z m105 -112 c19 -19 11 -92 -17 -145 -27 -55
-101 -129 -143 -145 -35 -14 -108 -12 -122 2 -31 31 -6 131 56 214 55 76 183
117 226 74z"/>
<path d="M1355 467 c-93 -63 -159 -218 -106 -247 61 -32 152 12 215 102 42 62
59 136 36 163 -23 27 -92 19 -145 -18z m140 -8 c10 -29 -2 -67 -38 -123 -45
-70 -98 -106 -159 -106 -31 0 -48 4 -49 13 -5 56 34 137 92 192 44 41 53 45
98 45 41 0 51 -3 56 -21z"/>
</g>
</svg>
